<?xml version="1.0" standalone="no"?>
<!DOCTYPE svg PUBLIC "-//W3C//DTD SVG 20010904//EN"
 "http://www.w3.org/TR/2001/REC-SVG-20010904/DTD/svg10.dtd">
<svg version="1.0" xmlns="http://www.w3.org/2000/svg"
 width="256.000000pt" height="256.000000pt" viewBox="0 0 256.000000 256.000000"
 preserveAspectRatio="xMidYMid meet">
<metadata>
Created by potrace 1.14, written by Peter Selinger 2001-2017
</metadata>
<g transform="translate(0.000000,256.000000) scale(0.100000,-0.100000)"
fill="#000000" stroke="none">
<path d="M1797 2544 c-1 -1 -65 -5 -142 -8 -97 -5 -144 -11 -155 -21 -9 -8
-16 -35 -18 -67 -2 -29 -5 -69 -7 -88 -3 -19 -7 -195 -10 -390 -5 -304 -13
-453 -30 -570 -2 -14 -7 -45 -10 -70 -11 -81 -16 -115 -21 -145 -3 -16 -7 -43
-9 -60 -2 -16 -8 -62 -14 -101 -6 -40 -13 -96 -17 -125 -3 -30 -8 -57 -10 -60
-1 -3 -6 -28 -9 -55 -3 -27 -15 -114 -27 -193 -23 -165 -28 -270 -15 -322 12
-48 59 -105 108 -130 106 -53 391 -83 518 -54 72 17 133 43 126 55 -2 4 -51 7
-107 7 -185 0 -348 34 -412 84 -32 25 -57 76 -58 120 -2 35 10 172 17 199 2 8
6 46 10 83 3 37 8 76 10 85 1 9 6 44 9 77 4 33 9 67 11 75 3 14 7 44 20 158 4
26 10 81 16 122 5 41 12 98 15 125 3 28 10 69 14 92 4 24 8 136 9 250 1 115 6
212 10 216 5 4 30 10 57 13 27 2 74 7 104 11 30 4 60 8 65 8 38 4 74 18 79 31
10 25 -43 38 -168 40 -98 1 -122 5 -132 18 -18 25 -18 457 1 482 12 17 30 19
182 19 222 1 290 24 216 72 -21 14 -48 18 -126 18 -54 0 -99 0 -100 -1z"/>
<path d="M515 475 c-1 -267 1 -285 17 -285 13 0 18 8 18 26 l0 25 36 -28 c48
-36 137 -40 181 -7 61 45 82 147 43 212 -50 82 -166 97 -237 30 l-23 -21 0
166 c0 152 -2 167 -17 167 -17 0 -18 -20 -18 -285z m214 -28 c40 -20 64 -61
64 -111 0 -56 -23 -93 -70 -113 -50 -20 -99 -9 -140 32 -75 75 -21 204 87 204
19 1 46 -5 59 -12z"/>
<path d="M1146 457 c-72 -168 -88 -203 -95 -210 -4 -4 -32 47 -62 113 -45 100
-58 120 -76 120 -21 0 -21 -1 9 -62 17 -35 48 -100 69 -146 l39 -82 -30 -67
c-23 -51 -27 -68 -18 -74 7 -5 16 -5 19 -1 5 5 133 294 185 418 3 6 -2 14 -10
17 -11 5 -20 -3 -30 -26z"/>
</g>
</svg>
