<?xml version="1.0" standalone="no"?>
<!DOCTYPE svg PUBLIC "-//W3C//DTD SVG 20010904//EN"
 "http://www.w3.org/TR/2001/REC-SVG-20010904/DTD/svg10.dtd">
<svg version="1.0" xmlns="http://www.w3.org/2000/svg"
 width="700.000000pt" height="700.000000pt" viewBox="0 0 700.000000 700.000000"
 preserveAspectRatio="xMidYMid meet">
<metadata>
Created by potrace 1.14, written by Peter Selinger 2001-2017
</metadata>
<g transform="translate(0.000000,700.000000) scale(0.100000,-0.100000)"
fill="#ffffff" stroke="none">
<path d="M4610 6529 c-459 -20 -566 -33 -596 -70 -19 -23 -23 -58 -45 -364
-17 -237 -23 -436 -29 -1085 -7 -647 -11 -816 -24 -910 -79 -558 -293 -2054
-320 -2245 -52 -355 -57 -406 -57 -570 0 -224 33 -320 145 -430 103 -101 231
-150 556 -214 168 -33 262 -41 471 -41 221 0 320 13 463 61 129 43 181 70 181
93 0 19 -11 20 -255 22 -346 2 -651 43 -821 109 -205 80 -309 219 -309 411 0
108 79 795 151 1314 16 118 41 311 55 430 13 118 38 312 55 430 52 368 59 471
59 921 0 386 1 418 18 439 15 19 33 24 118 31 322 28 522 57 574 84 34 18 53
47 44 69 -8 20 -80 42 -204 62 -73 13 -123 14 -220 8 -69 -4 -158 -8 -198 -8
-69 -1 -75 1 -98 27 l-24 28 0 562 c0 492 2 565 16 585 32 46 38 47 429 48
341 0 377 2 463 21 150 35 172 62 105 127 -61 59 -99 66 -327 64 -111 0 -280
-5 -376 -9z"/>
<path d="M1660 1565 l0 -685 45 0 45 0 0 66 0 67 50 -47 c147 -138 367 -142
510 -9 85 78 105 129 105 268 0 98 -3 116 -27 167 -35 76 -98 142 -167 175
-50 25 -67 28 -156 28 -127 -1 -197 -26 -267 -96 l-48 -48 0 399 0 400 -45 0
-45 0 0 -685z m515 -60 c54 -26 106 -81 135 -140 35 -74 35 -189 -1 -265 -53
-113 -135 -164 -264 -164 -64 0 -90 5 -130 24 -63 31 -121 89 -147 148 -25 56
-34 153 -19 208 23 87 98 167 188 200 54 20 187 14 238 -11z"/>
<path d="M2575 1571 c3 -5 77 -163 164 -351 l160 -341 -75 -168 c-41 -93 -74
-172 -74 -176 0 -3 19 -5 42 -3 l42 3 227 523 226 522 -41 0 -41 0 -129 -295
c-71 -162 -132 -295 -135 -295 -4 0 -68 133 -142 295 l-134 295 -48 0 c-27 0
-46 -4 -42 -9z"/>
</g>
</svg>
