<svg width="16" height="16" viewBox="0 0 16 16" fill="none" xmlns="http://www.w3.org/2000/svg">
<rect width="16" height="16" rx="1" fill="#30140B"/>
<path d="M10.5372 1.07667C9.48803 1.12239 9.24346 1.1521 9.17489 1.23667C9.13146 1.28924 9.12232 1.36924 9.07203 2.06867C9.03317 2.61039 9.01946 3.06524 9.00574 4.54867C8.98974 6.02753 8.9806 6.41381 8.95089 6.62867C8.77032 7.9041 8.28117 11.3235 8.21946 11.7601C8.1006 12.5715 8.08917 12.6881 8.08917 13.0629C8.08917 13.5749 8.1646 13.7944 8.4206 14.0458C8.65603 14.2767 8.9486 14.3887 9.69146 14.5349C10.0755 14.6104 10.2903 14.6287 10.768 14.6287C11.2732 14.6287 11.4995 14.5989 11.8263 14.4892C12.1212 14.3909 12.24 14.3292 12.24 14.2767C12.24 14.2332 12.2149 14.2309 11.6572 14.2264C10.8663 14.2218 10.1692 14.1281 9.7806 13.9772C9.31203 13.7944 9.07432 13.4767 9.07432 13.0378C9.07432 12.7909 9.25489 11.2207 9.41946 10.0344C9.45603 9.76467 9.51317 9.32352 9.54517 9.05152C9.57489 8.78181 9.63203 8.33838 9.67089 8.06867C9.78974 7.22753 9.80574 6.9921 9.80574 5.96353C9.80574 5.08124 9.80803 5.0081 9.84689 4.9601C9.88117 4.91667 9.92232 4.90524 10.1166 4.88924C10.8526 4.82524 11.3097 4.75896 11.4286 4.69724C11.5063 4.6561 11.5497 4.58981 11.5292 4.53953C11.5109 4.49381 11.3463 4.44353 11.0629 4.39781C10.896 4.3681 10.7817 4.36581 10.56 4.37953C10.4023 4.38867 10.1989 4.39781 10.1075 4.39781C9.94974 4.4001 9.93603 4.39553 9.88346 4.3361L9.8286 4.2721V2.98753C9.8286 1.86296 9.83317 1.6961 9.86517 1.65039C9.93832 1.54524 9.95203 1.54296 10.8457 1.54067C11.6252 1.54067 11.7075 1.5361 11.904 1.49267C12.2469 1.41267 12.2972 1.35096 12.144 1.20239C12.0046 1.06753 11.9177 1.05153 11.3966 1.0561C11.1429 1.0561 10.7566 1.06753 10.5372 1.07667Z" fill="#E8E3DC"/>
<path d="M3.79431 12.4228V13.9885H3.89717H4.00003V13.8377V13.6845L4.11431 13.792C4.45031 14.1074 4.95317 14.1165 5.28003 13.8125C5.47431 13.6343 5.52003 13.5177 5.52003 13.2C5.52003 12.976 5.51317 12.9348 5.45831 12.8183C5.37831 12.6445 5.23431 12.4937 5.0766 12.4183C4.96231 12.3611 4.92345 12.3543 4.72003 12.3543C4.42974 12.3566 4.26974 12.4137 4.10974 12.5737L4.00003 12.6834V11.7714V10.8571H3.89717H3.79431V12.4228ZM4.97145 12.56C5.09488 12.6194 5.21374 12.7451 5.28003 12.88C5.36003 13.0491 5.36003 13.312 5.27774 13.4857C5.1566 13.744 4.96917 13.8605 4.67431 13.8605C4.52803 13.8605 4.4686 13.8491 4.37717 13.8057C4.23317 13.7348 4.1006 13.6023 4.04117 13.4674C3.98403 13.3394 3.96345 13.1177 3.99774 12.992C4.05031 12.7931 4.22174 12.6103 4.42745 12.5348C4.55088 12.4891 4.85488 12.5028 4.97145 12.56Z" fill="#E8E3DC"/>
<path d="M5.88574 12.4092C5.89259 12.4206 6.06174 12.7818 6.26059 13.2115L6.62631 13.9909L6.45488 14.3749C6.36117 14.5875 6.28574 14.768 6.28574 14.7772C6.28574 14.784 6.32917 14.7886 6.38174 14.784L6.47774 14.7772L6.99659 13.5818L7.51317 12.3886H7.41945H7.32574L7.03088 13.0629C6.86859 13.4332 6.72917 13.7372 6.72231 13.7372C6.71317 13.7372 6.56688 13.4332 6.39774 13.0629L6.09145 12.3886H5.98174C5.92002 12.3886 5.87659 12.3978 5.88574 12.4092Z" fill="#E8E3DC"/>
</svg>
